<svg xmlns="http://www.w3.org/2000/svg" fill="#fff" width="16" height="17" viewBox="0 0 16 17">
  <path d="M15.2,3.09090909 L12,3.09090909 L12,2.31818182 C12,1.00454545 10.96,0 9.6,0 L6.4,0 C5.04,0 4,1.00454545 4,2.31818182 L4,3.09090909 L0.8,3.09090909 C0.32,3.09090909 0,3.4 0,3.86363636 C0,4.32727273 0.32,4.63636364 0.8,4.63636364 L1.6,4.63636364 L1.6,14.6818182 C1.6,15.9954545 2.64,17 4,17 L12,17 C13.36,17 14.4,15.9954545 14.4,14.6818182 L14.4,4.63636364 L15.2,4.63636364 C15.68,4.63636364 16,4.32727273 16,3.86363636 C16,3.4 15.68,3.09090909 15.2,3.09090909 Z M5.6,2.31818182 C5.6,1.85454545 5.92,1.54545455 6.4,1.54545455 L9.6,1.54545455 C10.08,1.54545455 10.4,1.85454545 10.4,2.31818182 L10.4,3.09090909 L5.6,3.09090909 L5.6,2.31818182 Z M12.8,14.6818182 C12.8,15.1454545 12.48,15.4545455 12,15.4545455 L4,15.4545455 C3.52,15.4545455 3.2,15.1454545 3.2,14.6818182 L3.2,4.63636364 L12.8,4.63636364 L12.8,14.6818182 Z"/>
</svg>
