<svg xmlns="http://www.w3.org/2000/svg" fill="#fff" width="16" height="17" viewBox="0 0 16 17">
  <path d="M12.8,10.8181818 C11.92,10.8181818 11.12,11.2045455 10.56,11.7454545 L6.32,9.35 C6.32,9.04090909 6.4,8.80909091 6.4,8.5 C6.4,8.19090909 6.32,7.95909091 6.24,7.65 L10.48,5.25454545 C11.12,5.79545455 11.92,6.18181818 12.8,6.18181818 C14.56,6.18181818 16,4.79090909 16,3.09090909 C16,1.39090909 14.56,0 12.8,0 C11.04,0 9.6,1.39090909 9.6,3.09090909 C9.6,3.4 9.68,3.63181818 9.76,3.94090909 L5.44,6.33636364 C4.88,5.79545455 4.08,5.40909091 3.2,5.40909091 C1.44,5.40909091 0,6.8 0,8.5 C0,10.2 1.44,11.5909091 3.2,11.5909091 C4.08,11.5909091 4.88,11.2045455 5.44,10.6636364 L9.68,13.0590909 C9.68,13.3681818 9.6,13.6 9.6,13.9090909 C9.6,15.6090909 11.04,17 12.8,17 C14.56,17 16,15.6090909 16,13.9090909 C16,12.2090909 14.56,10.8181818 12.8,10.8181818 Z M12.8,1.54545455 C13.68,1.54545455 14.4,2.24090909 14.4,3.09090909 C14.4,3.94090909 13.68,4.63636364 12.8,4.63636364 C11.92,4.63636364 11.2,3.94090909 11.2,3.09090909 C11.2,2.24090909 11.92,1.54545455 12.8,1.54545455 Z M3.2,10.0454545 C2.32,10.0454545 1.6,9.35 1.6,8.5 C1.6,7.65 2.32,6.95454545 3.2,6.95454545 C4.08,6.95454545 4.8,7.65 4.8,8.5 C4.8,9.35 4.08,10.0454545 3.2,10.0454545 Z M12.8,15.4545455 C11.92,15.4545455 11.2,14.7590909 11.2,13.9090909 C11.2,13.6 11.28,13.3681818 11.44,13.1363636 C11.44,13.1363636 11.44,13.1363636 11.44,13.1363636 C11.44,13.1363636 11.44,13.1363636 11.44,13.1363636 C11.68,12.6727273 12.24,12.3636364 12.8,12.3636364 C13.68,12.3636364 14.4,13.0590909 14.4,13.9090909 C14.4,14.7590909 13.68,15.4545455 12.8,15.4545455 Z"/>
</svg>
