<svg xmlns="http://www.w3.org/2000/svg" width="24" height="18" viewBox="0 0 24 18">
  <path fill="#3B99FC" d="M21.5426087,4.48073836 C21.5530435,4.67576244 21.5569565,4.87319422 21.5569565,5.0682183 C21.5569565,11.0754414 16.6043478,18 7.54826087,18 C4.76608696,18 2.17956522,17.2475923 0,15.9570626 C0.386086957,15.9991974 0.777391304,16.0208668 1.17391304,16.0208668 C3.4826087,16.0208668 5.60478261,15.29374 7.28869565,14.0766453 C5.13521739,14.0393258 3.31565217,12.7271268 2.68956522,10.9213483 C2.98956522,10.973114 3.29869565,11.0008026 3.61565217,11.0008026 C4.06565217,11.0008026 4.50130435,10.9466292 4.91347826,10.8430979 C2.66086957,10.4241573 0.963913043,8.5882825 0.963913043,6.38523274 C0.963913043,6.36597111 0.963913043,6.34791332 0.963913043,6.32865169 C1.62782609,6.66934189 2.38826087,6.87399679 3.19434783,6.89807384 C1.87304348,6.08186196 1.00304348,4.69261637 1.00304348,3.11436597 C1.00304348,2.28250401 1.24565217,1.50120385 1.67086957,0.829454254 C4.09826087,3.58025682 7.72826087,5.38844302 11.82,5.57865169 C11.7365217,5.24518459 11.6934783,4.89967897 11.6934783,4.54213483 C11.6934783,2.03330658 13.8965217,0 16.616087,0 C18.0326087,0 19.3121739,0.550160514 20.2108696,1.43378812 C21.3313043,1.22913323 22.3852174,0.851123596 23.3373913,0.33105939 C22.9695652,1.39165329 22.1882609,2.28250401 21.1721739,2.84470305 C22.1686957,2.73394864 23.1156522,2.49197432 24,2.12961477 C23.34,3.04213483 22.5052174,3.84149278 21.5426087,4.48073836 Z"/>
</svg>
